<svg width="70" height="70" xmlns="http://www.w3.org/2000/svg" xmlns:undefined="http://sodipodi.sourceforge.net/DTD/sodipodi-0.dtd" xml:space="preserve" version="1.1">
 <metadata id="metadata8">image/svg+xml</metadata>

 <g>
  <title>Layer 1</title>
  <path stroke="null" fill-rule="evenodd" fill="#1b1817" id="path16" d="m35.0501,1.50433c-19.1244,0 -34.63401,15.50748 -34.63401,34.63826c0,15.30122 9.92368,28.28472 23.68755,32.86701c1.73298,0.31683 2.3645,-0.75273 2.3645,-1.67131c0,-0.8229 -0.02977,-3.00028 -0.04678,-5.88999c-9.6345,2.09233 -11.66729,-4.64395 -11.66729,-4.64395c-1.57563,-4.00179 -3.84657,-5.06709 -3.84657,-5.06709c-3.14487,-2.14761 0.23815,-2.10509 0.23815,-2.10509c3.47658,0.24453 5.30525,3.57014 5.30525,3.57014c3.08959,5.29249 8.10778,3.76364 10.08103,2.87695c0.3147,-2.23692 1.20989,-3.76364 2.19865,-4.62907c-7.69101,-0.87606 -15.77753,-3.84657 -15.77753,-17.11925c0,-3.78278 1.35023,-6.87237 3.56589,-9.29428c-0.35723,-0.87606 -1.54586,-4.39729 0.34022,-9.1667c0,0 2.90672,-0.93134 9.52393,3.54888c2.76213,-0.76761 5.72626,-1.15036 8.67126,-1.16524c2.94287,0.01488 5.90488,0.39763 8.67126,1.16524c6.61295,-4.48022 9.51542,-3.54888 9.51542,-3.54888c1.89033,4.76941 0.7017,8.29064 0.3466,9.1667c2.21991,2.42191 3.55951,5.5115 3.55951,9.29428c0,13.30671 -8.09927,16.23469 -15.81367,17.09161c1.24179,1.06955 2.34962,3.18315 2.34962,6.4152c0,4.62907 -0.04253,8.36507 -0.04253,9.50054c0,0.92709 0.62515,2.00515 2.38151,1.66706c13.75324,-4.59079 23.66841,-17.56366 23.66841,-32.86276c0,-19.13078 -15.50961,-34.63826 -34.64039,-34.63826"/>
 </g>
</svg>