<?xml version="1.0" encoding="UTF-8" standalone="no"?>
<svg
   xmlns:dc="http://purl.org/dc/elements/1.1/"
   xmlns:cc="http://creativecommons.org/ns#"
   xmlns:rdf="http://www.w3.org/1999/02/22-rdf-syntax-ns#"
   xmlns:svg="http://www.w3.org/2000/svg"
   xmlns="http://www.w3.org/2000/svg"
   xmlns:sodipodi="http://sodipodi.sourceforge.net/DTD/sodipodi-0.dtd"
   xmlns:inkscape="http://www.inkscape.org/namespaces/inkscape"
   version="1.1"
   id="svg2"
   xml:space="preserve"
   width="138.92"
   height="138.92"
   viewBox="0 0 138.92 138.92"
   sodipodi:docname="minerva.eps"><metadata
     id="metadata8"><rdf:RDF><cc:Work
         rdf:about=""><dc:format>image/svg+xml</dc:format><dc:type
           rdf:resource="http://purl.org/dc/dcmitype/StillImage" /></cc:Work></rdf:RDF></metadata><defs
     id="defs6" /><sodipodi:namedview
     pagecolor="#ffffff"
     bordercolor="#666666"
     borderopacity="1"
     objecttolerance="10"
     gridtolerance="10"
     guidetolerance="10"
     inkscape:pageopacity="0"
     inkscape:pageshadow="2"
     inkscape:window-width="640"
     inkscape:window-height="480"
     id="namedview4" /><g
     id="g10"
     inkscape:groupmode="layer"
     inkscape:label="ink_ext_XXXXXX"
     transform="matrix(1.3333333,0,0,-1.3333333,0,138.92)"><g
       id="g12"
       transform="scale(0.1)"><path
         d="m 14.5859,520.941 c 0,279.204 227.1331,506.359 506.3591,506.359 279.207,0 506.365,-227.155 506.365,-506.359 C 1027.31,241.719 800.152,14.5508 520.945,14.5508 241.719,14.5508 14.5859,241.719 14.5859,520.941 Z M 0,520.941 C 0,233.691 233.688,0 520.945,0 808.199,0 1041.88,233.691 1041.88,520.941 1041.88,808.168 808.199,1041.86 520.945,1041.86 233.688,1041.86 0,808.168 0,520.941"
         style="fill:#00685c;fill-opacity:1;fill-rule:nonzero;stroke:none"
         id="path14" /><path
         d="m 863.207,436.211 c -14.18,-13.195 -34.266,-13.418 -50.547,-24.113 -7.461,-7.469 -5.574,-15.946 -2.519,-25.34 6.015,-11.906 3.73,-10.672 -4.668,-13.477 -19.637,-6.543 -19.422,-28.027 -43.035,-24.426 -1.34,-0.398 -6.868,2.364 -3.606,-1.589 2.539,-3.028 3.606,-1.203 8.606,-1.805 8.417,-0.402 11.542,3.062 17.46,7.078 8.426,7.09 7.422,9.758 17.774,14.734 2.488,0.586 8.601,2.403 12,1.204 2.316,-2.122 2.375,-2.168 2.746,-4.075 -1.34,-5.75 -9.746,-10.535 -12.949,-12.539 4.414,-3.23 12.683,-8.699 11.347,-13.277 -1.894,-3.012 -1.796,-3.52 -5.136,-5.141 -4.68,-2.265 -14.016,-1.922 -22.825,4.602 -1.335,-0.402 -2.8,2.605 -6.57,-0.977 8.574,-8.828 20.586,-6.816 22.383,-8.625 1.805,-1.797 -6.418,-12.461 -6.789,-14.754 -5.75,-15.312 1.32,-29.406 -1.766,-45.304 -1.894,-12.442 -5.617,-18.36 -16.504,-26.192 -19.98,-13.836 -33.984,-17.84 -56.398,-21.433 -58.789,-4.024 -95.879,16.152 -138.203,47.761 -42.332,31.614 -58.516,48.43 -71.735,66.223 -0.187,7.274 5.165,12.813 0.586,20.684 -3.82,-1.34 -3.445,-6.321 -5.75,-9.2 -3.261,-4.609 -11.101,-8.039 -16.671,-7.472 -17.411,5.937 -18.375,26.418 -29.266,38.097 -23.359,22.989 -29.887,56.114 -17.422,83.86 4.391,8.617 12.23,16.851 21.059,19.906 10.89,1.738 23.738,1.738 30.828,-8.805 8.394,-8.027 13.593,-21.054 15.676,-32.535 3.453,-5.57 -0.75,-11.879 4.976,-16.488 9.957,-0.93 18.57,-3.418 28.141,2.684 7.097,-0.934 8.066,-8.805 13.406,-12.235 l 9.582,-5.754 c 10.137,-4.187 23.172,-4.187 31.785,3.274 16.086,16.453 12.578,33.386 18.117,51.558 15.332,13.586 25.528,33.039 25.34,52.016 -0.965,11.664 -5.164,23.73 -12.07,35.394 1.152,6.907 4.973,12.067 7.277,18.2 1.922,1.148 4.422,1.148 6.504,1.523 17.039,3.637 32.559,19.156 39.258,35.426 l 1.523,1.523 c 19.52,1.336 43.848,8.243 55.137,28.735 2.305,8.804 12.254,2.304 18.379,4.39 10.332,0.586 20.684,6.313 28.535,13.028 2.293,0.773 4.004,-1.739 5.371,-2.864 4.571,-15.332 13.008,-30.074 17.793,-45.589 5.938,-11.672 8.055,-22.77 5.938,-34.649 2.488,-18.168 12.82,-35.211 20.097,-53.594 7.286,-19.347 18.563,-38.879 26.805,-58.785 1.535,-8.027 4.973,-14.371 0,-20.863 z m 3.996,33.414 c -13.789,31.785 -29.277,59.152 -40.598,91.133 -8.027,11.476 -3.425,23.73 -4.382,35.984 -5.168,19.156 -13.223,33.903 -20.879,52.469 -2.11,5.348 3.828,6.902 5.945,10.699 3.449,9.395 0.957,19.938 -3.269,28.93 -1.7,5.16 4.421,8.801 3.269,14.152 -0.215,8.238 -7.461,13.805 -13.211,18.196 -8.625,12.441 -12.629,18.968 -23.371,30.257 v 2.114 c 5.363,4.765 9.777,13.004 9.582,20.093 -2.109,8.028 -3.82,15.493 -11.504,21.059 -12.226,6.898 -24.668,-3.828 -34.433,-9.391 -2.696,-1.898 -4.043,-3.828 -7.872,-3.449 -2.472,0.883 -5.039,1.801 -7.648,2.738 -2.5,-2.851 -5.594,-5.875 -9.414,-8.886 l 11.906,-4.825 c 0.43,-0.324 0.586,-0.562 0.586,-0.96 0,-0.215 -0.078,-0.594 -0.129,-0.915 -0.828,-0.718 -27.539,-24.132 -27.539,-24.132 -0.078,-0.051 -48.125,-47.543 -48.125,-47.543 0,-0.028 -13.789,-14 -13.789,-14 -0.078,-0.078 -42.781,-49.282 -42.781,-49.282 -22.336,-25.902 -55.332,-68.418 -75.188,-99.531 -10.328,-14.238 -20.629,-30.047 -30.234,-45.004 -1.039,-1.66 -2.996,-1.527 -6.098,-1.152 -2.113,0.238 -4.281,0.461 -6.234,-0.211 0.055,0 0.082,0 0.082,0 l -0.43,-0.113 c 0.11,0.031 0.239,0.058 0.348,0.113 -10.863,-1.203 -18.758,-4.82 -27.207,-12.469 -10.973,-12.926 -16.484,-28.582 -16.484,-45.465 0,-11.601 2.644,-23.839 7.972,-36.125 -2.246,-6.582 -7.414,-12.382 -12.043,-17.519 l -2.566,-2.891 -3.289,-3.23 c -2.141,-2.043 -4.578,-4.336 -6.344,-6.582 l -0.16,-0.215 -0.109,-0.274 c -0.215,-0.714 -0.317,-2.082 1.796,-3.105 l 0.504,-0.266 0.567,0.137 c 10.117,2.402 16.484,10.012 22.66,17.363 0,0 3.883,4.465 4.441,5.137 0.91,0.156 1.66,-0.351 3,-1.473 0.696,-0.586 1.492,-1.152 2.407,-1.582 0,-0.207 0,-0.5 0,-0.5 0,0 -0.137,-3.269 -0.161,-4.011 -23.949,-23.653 -43.453,-37.012 -68.949,-51.993 l -4.258,-2.492 4.922,-0.508 c 9.953,-0.984 19.399,4.602 28.524,10.012 l 10.972,6.043 c 10.137,5.195 19.532,13.117 28.653,20.774 0,0 8.242,6.843 9.125,7.558 0.855,-0.129 1.816,-1.222 2.57,-2.109 0,0 0.535,-0.586 0.883,-0.957 0.16,-0.293 7.652,-15.117 8.105,-16.004 -1.715,-7.043 -2.461,-14.074 -2.461,-21.106 0,-15.332 3.321,-30.586 6.582,-45.519 3.207,-14.715 6.528,-29.91 6.528,-44.844 0,-0.984 -0.024,-1.949 -0.051,-2.937 0,-4.61 -5.063,-10.735 -9.262,-12.657 -9.578,-1.632 -21.137,-1.75 -33.39,-1.855 -15.004,-0.125 -30.551,-0.266 -42.489,-3.496 -3.851,-0.461 -8.293,-1.719 -12.601,-2.918 -4.227,-1.184 -8.586,-2.406 -12.657,-2.973 l -0.398,-0.047 -0.461,-0.351 -1.469,-1.028 c -1.363,-0.847 -3.047,-1.882 -3.453,-3.894 -0.023,-0.156 -0.047,-0.352 -0.047,-0.539 0,-1.153 0.532,-2.403 1.387,-3.289 0.828,-0.86 1.875,-1.25 2.941,-1.153 3.618,0 7.653,1.465 11.59,2.891 2.731,0.984 5.59,2.031 8.211,2.481 24.938,4.257 52.281,3.406 70.797,1.914 9.149,0.156 24.16,0.449 29.567,13.425 1.953,5.266 2.621,10.168 2.621,14.875 0,5.196 -0.801,10.196 -1.629,15.332 l -1.633,12.625 c -1.098,7.707 -2.731,15.383 -4.313,22.832 -2.8,13.215 -5.699,26.797 -5.699,40.559 0,2.781 0.164,5.586 0.403,8.398 0.269,0.352 0.562,0.782 0.914,0.829 0.804,0.109 2.218,-1.012 3.343,-1.903 1.285,-1.008 2.594,-1.972 4.039,-2.344 1.661,-1.261 3.536,-1.613 5.243,-1.828 2.382,-0.32 3.668,-0.613 4.418,-2.461 1.07,-12.089 5.246,-24.589 9.285,-36.679 2.781,-8.321 5.672,-16.942 7.519,-25.34 3.289,-14.707 6.606,-29.649 6.606,-44.356 0,-8.75 -1.176,-17.453 -4.254,-25.976 -6.395,-11.652 -20.391,-11.699 -33.903,-11.758 h -4.035 l -33.125,2.012 c -28.418,2.058 -57.793,4.168 -87.922,-0.696 0.211,0.032 -6.742,-0.73 -6.742,-0.73 -3.719,-0.559 -7.226,-1.016 -10.996,-0.129 -1.39,1.125 -2.519,3.078 -2.519,5.109 0,0.645 0.109,1.309 0.375,1.961 5.382,11.875 8.086,22.61 8.086,32.102 0,7.703 -1.774,14.59 -5.301,20.625 -7.789,14.941 -16.348,25.293 -26.914,32.519 -12.938,12.942 -23.996,24.415 -33.825,35.586 -5.746,0.723 -9.281,1.856 -9.664,1.981 l -1.277,0.441 -5.754,-7.09 c 7.469,-7.082 14.367,-14.171 22.793,-21.828 12.824,-6.902 23.176,-19.343 32.356,-27.773 11.101,-12.996 13.773,-26.785 11.472,-42.109 -1.523,-18.172 -18.168,-26.036 -29.48,-38.102 -4.574,-8.625 -7.465,-18.949 -1.153,-27.004 4.043,-10.703 21.247,-8.769 23.36,-17.598 4.734,-19.453 38.476,-30.6949 45.058,-31.152 6.551,-0.4492 13.348,-7.6953 13.348,-7.6953 13.402,-9.7773 31.012,-7.414 40.27,-5.9961 9.226,1.3867 25.765,-6.0742 36.117,-4.5508 15.496,6.1329 28.148,3.2618 44.23,4.5977 50.547,-0.7812 107.969,0.3828 159.657,-6.1211 9.582,1.1524 21.054,-6.3203 30.07,-1.75 2.305,3.8594 0.566,7.0899 0,10.3633 -24.688,38.8473 -28.391,82.4613 -14.387,124.7933 l 9.328,-0.547 c 33.524,-3.641 64.012,0.695 98.074,20.422 17.051,9.382 26.008,31.336 25.227,47.226 -0.566,10.332 -4.141,22.528 -2.414,33.446 0.598,4.875 3.828,12.277 8.019,14.601 1.797,0.996 8.075,5.254 10.04,10.703 3.242,8.867 -3.704,13.047 -5.704,14.246 5.399,2.207 10.645,13.274 5.664,21.887 -3.195,3.398 -6.914,16.856 -7.316,21.27 -1.141,6.308 -1.336,12.812 4.602,16.855 13.406,7.059 26.035,8.801 40,14.922 9.589,4.023 14.558,13.969 14.187,22.965 z M 319.871,153.953 c -1.711,-3.074 -1.473,-5.137 -2.25,-8.836 -0.933,-1.679 -5.723,0.598 -7.246,1.531 -5.941,3.215 -5.539,1.582 -7.254,7.09 -0.965,3.692 -0.855,8.028 5.274,11.242 3.824,2.168 11.476,4.754 13.964,0 0.778,-3.214 -3.046,-7.363 -2.488,-11.027 z m 32.672,-41.363 c -7.848,-0.188 -13.355,4.09 -16.992,13.348 -3.664,11.777 -4.899,22.175 -2.36,34.296 0.809,1.532 2.547,2.52 3.668,2.012 l 10.95,3.719 c 3.668,1.496 6.66,2.012 10.164,1.183 l 2.222,-2.199 c -0.168,-6.394 -1.742,-11.101 -1.898,-17.011 -0.645,-14.833 -1.902,-19.247 2.379,-33.368 -1.578,-3.722 -4.738,-1.925 -8.133,-1.98 z m 449.902,550.695 c -1.074,-1.121 -2.41,-2.515 -4.199,-2.035 -4.07,2.836 -2.519,6.449 -2.273,9.879 0.828,0.824 0.957,1.309 2.273,1.309 1.926,0.32 3,-1.098 3.711,-2.118 1.211,-2.218 1.348,-4.734 0.488,-7.035 z M 491.781,483.988 c 26.809,48.059 59.375,89.797 94.211,132.688 l 48.828,55.492 c 34.832,37.164 73.309,75.262 116.016,104.723 5.352,3.078 7.703,9.363 13.242,4.949 l 5.027,-4.629 c 3.372,-3.828 0.43,-14.688 -3.027,-17.738 -2.742,-2.246 -5.418,-4.469 -8.074,-6.66 8.328,-8.243 20.332,-23.922 30.203,-34.063 4.336,-4.469 3,-9.098 10.762,-12.711 3.879,-1.82 4.98,-6.043 2.676,-9.684 -6.883,-8.8 -18.36,-7.464 -27.372,-9.765 -33.496,-7.465 -60.578,-17.043 -97.636,-35.024 -29.668,-15.707 -53.399,-33.125 -74.864,-60.121 -8.214,-10.14 -17.421,-17.816 -24.296,-30.05 -19.524,-25.098 -35.039,-48.641 -50.567,-74.485 -5.539,-8.137 -7.355,-12.176 -15.117,-19.539 -3.77,-3.582 -7.141,3.906 -9.496,6.508 -0.27,0.293 -0.434,0.613 -0.617,0.906 -0.805,-0.101 -1.629,0.055 -2.434,0.59 -2.09,2.676 -8.617,3.828 -7.465,8.613 z m 295.305,185.641 c -0.508,-9.289 -12.891,-16.961 -23.254,-19.828 -4.414,-0.696 -8.477,-0.43 -12.383,-0.43 -1.015,0.723 -2.195,1.582 -2.031,2.57 0.664,4.414 1.367,6.985 1.691,10.969 l 2.559,1.875 c 9.148,1.84 20.332,3.824 29.512,6.262 1.367,-0.293 3.047,-0.164 3.906,-1.418 z m -96.211,-24.164 1.66,2.113 c 7.488,3.559 14.473,6.313 22.793,8.719 l 9.981,2.598 c 2.644,2.41 7.304,4.363 9.98,0.964 0.164,-12.921 -9.504,-28.437 -23.789,-34.406 -4.492,-1.953 -10.488,-2.598 -15.812,-3.906 -1.336,1.148 -5.672,-1.289 -6.981,1.953 0.828,6.477 3.32,16.156 2.168,21.965 z M 588.668,416.379 c -2.676,-1.555 -25.82,7.273 -23.125,4.812 -5.48,5.938 3.484,7.95 -16.934,15.602 l -4.953,-0.516 c -0.633,-0.586 -2.429,-1.492 -4.277,1.051 -0.184,3.078 3.859,2.621 5.137,6.449 7.304,16.457 3.293,29.192 2.57,46.231 l 5.41,13.972 c 10.242,12.36 10.215,14.125 17.168,20.84 6.961,9.77 8.406,10.516 17.715,18.543 1.531,1.309 4.336,2.356 6.16,0.809 4.387,-3.43 4.629,-5.676 5.91,-10.067 2.188,-16.292 -7.656,-27.449 -19.531,-36.253 -8.438,-7.278 -16.457,-18.571 -14.641,-29.672 L 566,467.426 c 3.859,3.242 8.703,5.14 10.332,9.156 6.418,14.34 23.703,20.867 33.391,33.305 4.199,7.465 1.629,20.422 0,29.035 -0.059,-0.242 12.683,6.019 9.226,3.773 6.047,-2.492 5.305,-6.828 8.215,-12.359 5.672,-14.375 5.195,-27.348 -3.586,-39.789 l -24.129,-30.098 c -0.371,-15.336 3.848,-35.078 -10.781,-44.07 z m 31.836,145.656 c -5.801,-2.672 -11.777,-3.258 -18.195,-0.293 -1.629,2.223 -6.934,4.02 -4.844,7.281 4.66,7.543 12.551,13.778 17.394,21.192 l 2.246,1.203 c 9.825,11.852 25.293,21.781 39.95,30.691 l 8.859,3.852 c 1.922,1.926 6.445,5.937 8.211,1.793 0.324,-15.441 -6.211,-31.949 -20.926,-42.867 -8.937,-6.606 -12.754,-5.321 -20.734,-5.805 l -4.09,-7.41 c -0.969,-3.695 -4.18,-7.414 -7.871,-9.637 z m -81.231,-88.105 -0.402,-10.918 c -0.996,-9.949 -5.594,-21.43 -14.961,-26.989 -5.59,1.329 -3.582,8.047 -4.972,12.625 3.585,9.95 10.57,18.192 16.351,26.997 0.781,0.585 1.582,0.96 2.371,0.585 z M 405.973,94.3359 c -3.907,-4.0156 -6.102,-2.1406 -10.059,-2.5117 -11.266,3.0586 -17.926,7.9492 -21.113,20.7028 -4.121,17.793 -3.985,37.364 0,55.52 l 1.82,1.426 c 7.922,0.91 19.906,2.507 23.168,0.722 3.242,-1.797 -3.504,-33.8 -3.504,-33.8 -0.211,-6.336 2.895,-22.579 5.781,-31.004 0.614,-1.25 7.09,-7.7543 3.907,-11.0551 z m 81.742,19.7731 c -1.207,-11.414 -15.547,-21.4801 -22.559,-23.5152 -7.035,-2 -28.039,-1.0157 -34.086,1.0664 -6.019,2.0898 -20.761,30.8788 -19.05,45.8398 0,12.336 3.324,31.914 8.269,33.496 4.949,1.551 18.055,0.75 18.055,0.75 5.488,0.371 9.636,-0.937 14.453,-1.492 3.426,-1.32 1.016,-5.625 2.219,-8.066 1.55,-6.368 1.902,-13.262 5.859,-19.629 5.512,-10.684 15.652,-17.043 25.633,-20.793 2.254,-2.059 1.015,-4.844 1.207,-7.657 z m -16.11,48.321 c 0,2.304 0.133,3.242 1.875,3.996 h 9.469 c 8.403,-0.293 19.215,-3.047 27.078,5.078 4.524,-0.156 4.922,-5.539 6.125,-9.688 1.075,-5.8 0.805,-9.492 0.805,-14.707 -1.875,-4.132 -3.984,-10.421 -8.266,-13.039 -6.796,-3.211 -13.625,-2.586 -20.144,0 -9.875,5.832 -17.07,15.168 -16.942,28.36 z m 193.848,45.199 c -12.656,-43.852 -18.672,-66.469 1.067,-111.6524 0.195,-1.7188 2.097,-7.3047 0,-8.0547 -21.829,4.3828 -27.637,6.2578 -48.125,7.7812 -18.946,3.2696 -50.411,-2.0117 -71.477,-1.8164 -16.445,-0.5664 -33.113,-1.125 -50.352,-3.2344 -5.16,2.668 -1.152,8.418 -0.746,12.2457 1.899,5.95 2.086,8.997 2.676,15.891 2.676,2.859 5.942,1.348 9.18,2.684 11.097,1.711 20.492,11.476 23.168,21.836 3.449,10.879 -0.371,22.949 -5.352,33.3 -0.965,3.059 -5.164,5.364 -3.457,8.411 13.594,25.468 4.016,51.32 -0.555,76.199 -4.792,17.636 -12.066,37.14 -14.957,55.734 0.586,1.902 -1.898,6.317 2.301,6.688 l 1.551,-0.371 c 14.531,-17.637 56.184,-54.922 71.789,-67.032 15.606,-12.105 55.899,-35.613 82.117,-41.922 2.492,-2.082 2.11,-3.828 1.172,-6.687"
         style="fill:#00685c;fill-opacity:1;fill-rule:nonzero;stroke:none"
         id="path16" /><path
         d="m 776.09,588.797 c 2.676,-3.449 4.414,-6.5 2.305,-9.77 -4.981,-0.375 -5.754,5.942 -9.961,8.059 -6.895,3.422 -13.02,-0.215 -19.903,-1.93 -17.414,-7.465 -31.972,-22.398 -48.828,-30.234 -2.082,0 -4.015,0.191 -5.351,1.715 2.859,2.859 7.461,3.453 11.101,5.75 17.422,11.48 34.277,29.457 56.086,32.726 5.75,0.371 10.918,-1.715 14.551,-6.316"
         style="fill:#00685c;fill-opacity:1;fill-rule:nonzero;stroke:none"
         id="path18" /><path
         d="m 774.75,559.313 c -1.336,4.222 -1.141,11.101 -6.316,12.066 -1.145,-2.68 0,-5.57 -1.145,-8.055 -1.531,-1.898 -4.207,-4.199 -7.285,-3.426 -21.055,-1.339 -36.758,-19.933 -54.734,-29.484 -6.133,-3.449 -13.028,-5.375 -19.532,-7.094 -0.586,-0.961 -0.371,-2.3 0.555,-2.859 19.934,-2.117 39.629,-4.039 59.375,-6.125 l 21.992,2.484 c 0.586,2.868 -2.859,5.352 -2.293,8.618 2.508,8.984 3.262,18.757 0.77,27.183 1.738,4.574 8.242,1.149 8.613,6.692 z m -15.379,-34.012 c -2.707,-3.988 -6.984,-0.504 -10.754,-0.985 -8.621,0.985 -23.172,-1.019 -32.676,0.157 -1.445,0.828 -2.507,2.328 -1.628,3.668 1.445,2.351 5.398,2.511 7.917,4.359 10.403,6.5 21.348,12.684 33.204,15.516 2.148,0.324 3.937,-1.496 4.308,-2.996 1.426,-5.508 0.535,-14.368 -0.371,-19.719"
         style="fill:#00685c;fill-opacity:1;fill-rule:nonzero;stroke:none"
         id="path20" /><path
         d="m 785.883,460.613 c 0.703,1.004 1.504,2.141 2.453,2.235 1.25,-0.465 1.914,-1.055 2.078,-3.36 -0.156,-3.695 -1.094,-7.578 -2.09,-11.695 -1.14,-4.684 -2.304,-9.473 -2.304,-14.16 0,-2.09 0.226,-4.153 0.793,-6.172 2.773,-3.449 7.039,-4.231 12.167,-2.473 0.098,0.039 8.719,4.992 8.719,4.992 7.5,4.493 14.59,8.719 27.715,12.067 0.324,0.082 0.402,-0.02 0.449,-0.078 0.207,-0.242 0.305,-0.731 0.305,-1.348 0,-1.125 -0.332,-2.66 -0.879,-3.91 -0.5,-0.227 -12.637,-5.648 -12.637,-5.648 -9.562,-4.168 -19.445,-8.497 -28.703,-13.797 -2.742,-0.567 -5.273,0.918 -7.715,2.343 l -0.605,0.352 c -3.516,4.824 -4.656,9.492 -4.656,14.16 0,4.195 0.918,8.383 1.863,12.684 0.871,4.004 1.758,8.152 1.965,12.496 0.301,0.367 1.082,1.312 1.082,1.312"
         style="fill:#00685c;fill-opacity:1;fill-rule:nonzero;stroke:none"
         id="path22" /><path
         d="m 487.582,464.535 c 6.898,-14.148 -0.379,-27.555 0,-42.301 1.148,-4.199 9.391,-4.793 6.898,-9.765 -1.925,-1.336 -4.601,-1.707 -6.71,-0.184 -3.829,2.488 -5.168,4.387 -6.129,8.809 -0.961,12.996 9.39,28.144 0.183,40.394 -2.676,2.676 -6.496,5.352 -10.324,5.539 -8.242,-1.523 -12.441,-10.328 -15.305,-16.828 -4.414,-17.23 -5.566,-35.426 9.551,-49.203 8.828,-5.168 19.531,-10.734 20.117,-21.836 1.34,-1.926 4.016,-3.828 6.129,-2.676 2.676,0.188 3.051,7.84 6.879,4.207 l 1.149,-2.683 c -0.961,-3.047 -1.899,-8.43 -6.875,-8.613 -2.493,-0.567 -5.192,0.781 -7.282,2.293 -5.375,5.546 -1.144,13.976 -10.164,17.609 -14.929,4.609 -24.691,20.312 -26.222,35.058 -0.961,14.153 -0.375,29.668 11.878,42.11 4.793,3.64 11.11,5.941 17.235,4.012 3.453,-0.559 7.465,-3.051 8.992,-5.942"
         style="fill:#00685c;fill-opacity:1;fill-rule:nonzero;stroke:none"
         id="path24" /><path
         d="m 300.41,360.996 c -27.262,-12.648 -35.582,-45.109 -35.933,-46.492 l -0.723,-2.863 2.812,-0.969 c 1.071,-0.352 26.383,-8.641 57.258,6.523 31.149,15.285 37.539,46.114 37.809,47.414 l 0.637,3.274 -3.29,0.523 c -1.285,0.227 -31.812,5.012 -58.57,-7.41 z m 2.703,-5.851 c 19.91,9.23 42.653,8.164 51.211,7.335 -2.433,-7.902 -10.695,-28.398 -33.34,-39.503 -22.714,-11.122 -42.168,-8.473 -49.281,-6.922 2.621,7.871 11.422,29.804 31.41,39.09"
         style="fill:#00685c;fill-opacity:1;fill-rule:evenodd;stroke:none"
         id="path26" /><path
         d="M 327.582,422.195 C 300.27,409.863 290.18,377.703 289.781,376.348 l -0.937,-3.078 3.051,-0.946 c 1.07,-0.344 26.296,-7.859 57.285,6.961 31.273,14.953 37.91,44.738 38.179,45.988 l 0.668,3.274 -3.261,0.586 c -1.231,0.211 -30.317,5.191 -57.184,-6.938 z m 2.652,-5.879 c 19.829,8.957 41.469,7.805 49.77,6.926 -2.547,-7.695 -11,-27.344 -33.609,-38.144 -22.528,-10.762 -41.848,-8.731 -49.231,-7.344 3.133,8.027 13.109,29.551 33.07,38.562"
         style="fill:#00685c;fill-opacity:1;fill-rule:evenodd;stroke:none"
         id="path28" /><path
         d="m 363.059,481.133 c -27.34,-12.012 -39.196,-43.852 -39.68,-45.215 l -1.199,-3.273 3.343,-0.926 c 1.071,-0.293 26.247,-7.071 57.286,7.406 31.41,14.609 38.285,43.344 38.578,44.582 l 0.722,3.234 -3.261,0.641 c -1.153,0.238 -28.789,5.43 -55.789,-6.449 z m 2.593,-5.914 c 19.746,8.699 40.293,7.465 48.352,6.527 -2.676,-7.519 -11.316,-26.273 -33.902,-36.785 -22.289,-10.352 -41.446,-8.938 -49.149,-7.734 3.695,8.164 14.77,29.242 34.699,37.992"
         style="fill:#00685c;fill-opacity:1;fill-rule:evenodd;stroke:none"
         id="path30" /><path
         d="M 398.293,539.352 C 370.922,527.633 357.328,496.086 356.77,494.773 l -1.473,-3.476 3.664,-0.91 c 1.043,-0.27 26.141,-6.289 57.285,7.836 31.524,14.293 38.637,41.98 38.934,43.16 l 0.8,3.234 -3.265,0.699 c -1.094,0.239 -27.262,5.622 -54.422,-5.964 z m 2.543,-5.946 c 19.691,8.407 39.144,7.121 46.902,6.16 -2.781,-7.336 -11.609,-25.261 -34.168,-35.48 -22.047,-9.981 -41.07,-9.125 -49.043,-8.106 4.258,8.317 16.453,28.946 36.309,37.426"
         style="fill:#00685c;fill-opacity:1;fill-rule:evenodd;stroke:none"
         id="path32" /><path
         d="m 447.07,597.598 c -27.453,-11.399 -42.754,-42.653 -43.398,-43.961 l -1.793,-3.692 3.984,-0.855 c 1.071,-0.242 26.09,-5.488 57.317,8.269 31.648,13.965 39.008,40.614 39.3,41.739 l 0.86,3.211 -3.238,0.777 c -1.016,0.238 -25.766,5.832 -53.032,-5.488 z m 2.461,-5.965 c 19.586,8.133 37.992,6.793 45.485,5.75 -2.914,-7.113 -11.93,-24.184 -34.434,-34.113 -21.969,-9.684 -40.777,-9.286 -48.937,-8.481 4.898,8.453 18.117,28.629 37.886,36.844"
         style="fill:#00685c;fill-opacity:1;fill-rule:evenodd;stroke:none"
         id="path34" /><path
         d="m 500.824,653.789 c -27.48,-11.078 -44.551,-42.035 -45.273,-43.344 l -2.082,-3.882 4.336,-0.833 c 1.039,-0.183 26.004,-4.707 57.277,8.727 31.816,13.645 39.414,39.25 39.707,40.316 l 0.918,3.192 -3.191,0.824 c -0.989,0.242 -24.297,6.051 -51.692,-5 z m 2.406,-5.969 c 19.461,7.84 36.813,6.473 44.04,5.379 -3.047,-6.929 -12.254,-23.199 -34.727,-32.804 -21.758,-9.34 -40.375,-9.418 -48.75,-8.829 5.484,8.59 19.746,28.305 39.437,36.254"
         style="fill:#00685c;fill-opacity:1;fill-rule:evenodd;stroke:none"
         id="path36" /><path
         d="M 558.207,706.922 C 530.68,696.141 511.898,665.477 511.121,664.164 l -2.484,-4.09 4.738,-0.75 c 1.043,-0.16 25.926,-3.933 57.285,9.153 31.922,13.3 39.754,37.832 40.078,38.871 l 0.965,3.164 -3.164,0.879 c -0.906,0.269 -22.762,6.312 -50.332,-4.469 z m 2.363,-6.016 c 19.289,7.539 35.664,6.149 42.598,5.032 -3.191,-6.719 -12.578,-22.184 -35,-31.524 -21.426,-8.937 -39.922,-9.527 -48.559,-9.152 6.149,8.726 21.43,27.992 40.961,35.644"
         style="fill:#00685c;fill-opacity:1;fill-rule:evenodd;stroke:none"
         id="path38" /><path
         d="M 617.934,755.941 C 590.328,745.453 569.828,715.09 568.969,713.797 l -2.891,-4.328 5.168,-0.676 c 1.043,-0.125 25.848,-3.129 57.285,9.609 32.051,12.981 40.137,36.442 40.457,37.457 l 1.008,3.082 -3.098,0.985 c -0.859,0.269 -21.269,6.535 -48.964,-3.985 z m 2.304,-6.019 c 19.102,7.25 34.485,5.836 41.125,4.652 -3.32,-6.5 -12.929,-21.16 -35.234,-30.203 -21.27,-8.59 -39.531,-9.605 -48.359,-9.449 6.804,8.805 22.988,27.613 42.468,35"
         style="fill:#00685c;fill-opacity:1;fill-rule:evenodd;stroke:none"
         id="path40" /><path
         d="m 678.59,799.879 c -27.668,-10.203 -49.875,-40.301 -50.813,-41.582 l -3.308,-4.547 5.586,-0.566 c 1.043,-0.102 25.8,-2.356 57.312,10.035 32.168,12.625 40.481,35.051 40.832,36.015 l 1.074,3.051 -3.058,1.07 c -0.77,0.293 -19.774,6.774 -47.625,-3.476 z m 2.226,-6.051 c 18.907,6.957 33.36,5.535 39.707,4.305 -3.488,-6.258 -13.242,-20.172 -35.527,-28.918 -20.988,-8.242 -38.996,-9.664 -48.039,-9.742 7.434,8.886 24.512,27.211 43.859,34.355"
         style="fill:#00685c;fill-opacity:1;fill-rule:evenodd;stroke:none"
         id="path42" /><path
         d="m 256.813,422.637 c -0.813,-1.035 -19.75,-25.625 -21.708,-55.227 -1.953,-30.125 22.692,-53.133 23.762,-54.09 l 2.164,-2.011 2.196,2.011 c 0.832,0.743 20.336,19.043 21.836,53.614 1.523,34.804 -22.637,55.332 -23.657,56.179 l -2.562,2.149 z m -15.336,-58.594 c 0,0.984 0.027,1.953 0.082,2.937 1.445,22.161 13.425,41.692 18.246,48.723 5.59,-5.742 18.89,-21.906 18.89,-45.723 0,-0.91 -0.027,-1.847 -0.082,-2.785 -1.097,-25.39 -12.816,-41.308 -17.633,-46.824 -5.457,5.84 -19.503,22.859 -19.503,43.672"
         style="fill:#00685c;fill-opacity:1;fill-rule:evenodd;stroke:none"
         id="path44" /><path
         d="m 295.254,488.945 c -0.641,-0.726 -16.051,-17.715 -22.633,-42.148 -0.883,-3.313 -1.582,-6.871 -2.012,-10.539 -3.554,-29.215 17.555,-53.164 18.469,-54.18 l 2.082,-2.332 2.41,2.031 c 0.828,0.723 20.762,18.008 24.805,51.563 4.066,33.93 -17.605,54.879 -18.516,55.762 l -2.382,2.25 z M 276.66,429.676 c 0,1.894 0.11,3.847 0.348,5.801 0.398,3.378 1.019,6.613 1.844,9.636 4.711,17.504 14.476,31.172 18.867,36.711 4.625,-5.511 14.715,-19.828 14.715,-40.242 0,-2.406 -0.164,-4.894 -0.457,-7.473 -2.946,-24.453 -15.118,-39.617 -20.223,-45.046 -4.551,6.015 -15.094,21.882 -15.094,40.613"
         style="fill:#00685c;fill-opacity:1;fill-rule:evenodd;stroke:none"
         id="path46" /><path
         d="m 338.359,551.121 c -0.691,-0.637 -16.855,-15.707 -25.074,-39.969 -1.039,-3.082 -1.894,-6.425 -2.562,-10.195 -5.137,-28.258 12.437,-53.117 13.187,-54.184 l 1.953,-2.73 2.653,2.09 c 0.855,0.664 21.214,16.933 27.773,49.496 6.637,32.992 -12.555,54.394 -13.379,55.277 l -2.168,2.41 z m -22.097,-60.574 c 0,3.023 0.238,6.156 0.828,9.289 0.609,3.445 1.363,6.473 2.301,9.254 5.836,17.226 16.191,29.699 20.867,34.758 3.691,-5.219 10.949,-17.637 10.949,-34.707 0,-3.852 -0.383,-7.946 -1.262,-12.25 -4.711,-23.469 -17.312,-37.887 -22.765,-43.239 -3.59,6.075 -10.918,20.411 -10.918,36.895"
         style="fill:#00685c;fill-opacity:1;fill-rule:evenodd;stroke:none"
         id="path48" /><path
         d="m 385.746,609.238 c -0.723,-0.562 -17.633,-13.703 -27.531,-37.777 -1.18,-2.84 -2.168,-6.051 -3.11,-9.824 -6.632,-27.321 7.313,-53.059 7.899,-54.157 l 1.762,-3.183 2.949,2.144 c 0.879,0.614 21.644,15.864 30.715,47.411 9.203,32.027 -7.469,53.886 -8.192,54.796 l -1.953,2.52 z M 359.82,546.441 c 0,4.442 0.453,9.071 1.575,13.672 0.832,3.45 1.746,6.371 2.785,8.91 6.957,16.911 17.847,28.2 22.824,32.774 2.758,-4.707 7.68,-15.035 7.68,-29 0,-5.242 -0.696,-11.024 -2.465,-17.152 -6.449,-22.446 -19.422,-36.149 -25.254,-41.446 -2.57,5.836 -7.145,18.141 -7.145,32.242"
         style="fill:#00685c;fill-opacity:1;fill-rule:evenodd;stroke:none"
         id="path50" /><path
         d="m 437.066,663.34 c -0.753,-0.453 -18.332,-11.664 -29.996,-35.563 -1.308,-2.699 -2.492,-5.699 -3.636,-9.441 -8.192,-26.383 2.168,-52.981 2.621,-54.102 l 1.468,-3.668 3.321,2.168 c 0.879,0.614 22.047,14.848 33.605,45.352 11.774,31.062 -2.355,53.355 -2.969,54.285 l -1.746,2.652 z m -30.293,-66.598 c 0,6.289 0.75,13.031 2.813,19.664 1.074,3.43 2.109,6.157 3.262,8.535 8.164,16.668 19.59,26.836 24.804,30.907 1.981,-4.094 5.004,-12.149 5.004,-23.035 0,-6.586 -1.097,-14.157 -4.258,-22.422 -8.078,-21.383 -21.457,-34.411 -27.714,-39.629 -1.551,5.218 -3.911,14.824 -3.911,25.98"
         style="fill:#00685c;fill-opacity:1;fill-rule:evenodd;stroke:none"
         id="path52" /><path
         d="m 491.992,713.508 c -0.777,-0.379 -18.996,-9.66 -32.48,-33.367 -1.446,-2.543 -2.782,-5.43 -4.176,-9.043 -9.734,-25.418 -2.887,-52.84 -2.594,-53.993 l 1.071,-4.199 3.722,2.246 c 0.906,0.532 22.469,13.778 36.492,43.266 14.317,30.074 2.754,52.762 2.246,53.695 l -1.468,2.809 z m -35.371,-72.805 c 0,8.535 1.098,18.57 4.734,28.09 1.286,3.297 2.461,5.891 3.778,8.164 9.308,16.371 21.215,25.422 26.726,28.981 1.207,-3.375 2.868,-9.211 2.868,-17.239 0,-7.648 -1.528,-17.066 -6.504,-27.5 -9.743,-20.469 -23.543,-32.699 -30.157,-37.781 -0.668,3.961 -1.445,10.062 -1.445,17.285"
         style="fill:#00685c;fill-opacity:1;fill-rule:evenodd;stroke:none"
         id="path54" /><path
         d="m 550.297,759.797 c -0.801,-0.324 -19.59,-7.707 -34.969,-31.121 -1.605,-2.461 -3.137,-5.297 -4.715,-8.668 -11.258,-24.457 -7.941,-52.707 -7.785,-53.887 l 0.567,-4.711 4.168,2.278 c 0.945,0.507 22.882,12.738 39.414,41.203 16.828,29.054 7.843,52.121 7.472,53.086 l -1.211,2.941 z m -41.551,-82.574 c 0,10.09 1.231,25.98 7.731,40.082 1.445,3.105 2.836,5.644 4.253,7.812 10.543,16.082 22.926,24.059 28.649,27.106 0.617,-2.571 1.262,-6.395 1.262,-11.453 0,-8.481 -1.895,-19.961 -9.258,-32.645 -11.309,-19.531 -25.492,-31.008 -32.531,-35.93 -0.051,1.473 -0.106,3.102 -0.106,5.028"
         style="fill:#00685c;fill-opacity:1;fill-rule:evenodd;stroke:none"
         id="path56" /><path
         d="m 611.703,802.258 c -0.808,-0.242 -20.156,-5.754 -37.43,-28.899 -1.816,-2.406 -3.535,-5.136 -5.246,-8.238 -12.839,-23.496 -12.976,-52.578 -12.976,-53.812 l 0.027,-5.161 4.629,2.274 c 0.957,0.484 23.301,11.719 42.277,39.172 19.364,28.011 12.969,51.453 12.676,52.414 l -0.879,3.078 z m -37,-40.246 c 1.543,2.867 3.094,5.301 4.727,7.496 11.777,15.762 24.668,22.687 30.613,25.226 0.187,-1.496 0.344,-3.312 0.344,-5.644 0,-8.641 -2.11,-22.5 -12.707,-37.832 -12.871,-18.598 -27.45,-29.379 -34.891,-34.113 0.703,9.441 3.106,28.816 11.914,44.867"
         style="fill:#00685c;fill-opacity:1;fill-rule:evenodd;stroke:none"
         id="path58" /><path
         d="m 675.668,840.922 c -0.828,-0.137 -20.652,-3.828 -39.91,-26.598 -19.16,-22.609 -23.653,-59.988 -23.84,-61.566 l -0.645,-5.594 5.137,2.277 c 0.969,0.426 23.731,10.676 45.168,37.137 21.836,26.973 18.008,50.731 17.84,51.719 l -0.555,3.183 z m -34.988,-30.77 c 13.054,15.434 26.433,21.348 32.586,23.411 0.031,-0.161 0.031,-0.243 0.031,-0.43 0,-7.434 -1.926,-24.211 -16.758,-42.512 -14.336,-17.715 -29.394,-27.805 -37.207,-32.324 2.078,11.476 7.938,36.039 21.348,51.855"
         style="fill:#00685c;fill-opacity:1;fill-rule:evenodd;stroke:none"
         id="path60" /><path
         d="m 63.0898,520.941 c 0,-156.019 84.4452,-306.117 220.3902,-391.761 l 5.622,-3.535 4.043,5.273 c 1.148,1.504 1.605,2.91 1.605,4.227 0,3.339 -2.863,5.968 -4.473,7.46 l -7.867,7.551 c -28.012,31.817 -35.523,61.992 -35.523,85.196 0,25.656 9.168,42.773 9.926,44.089 l 2.507,4.524 -3.453,3.875 c -57.445,64.082 -87.781,144.68 -87.781,233.101 0,194.571 158.285,352.864 352.859,352.864 54.098,0 106.004,-11.91 154.274,-35.403 l 5,-2.429 70.937,80.906 -7.871,4.391 c -67.617,37.644 -144.5,57.523 -222.34,57.523 -252.468,0 -457.8552,-205.41 -457.8552,-457.852 z m 14.5586,0 c 0,244.418 198.8516,443.297 443.2966,443.297 72.321,0 143.707,-17.925 207.176,-51.535 -9.289,-10.594 -45.996,-52.469 -51.641,-58.887 -48.808,22.848 -101.085,34.543 -155.535,34.543 -202.601,0 -367.445,-164.82 -367.445,-367.418 0,-90.386 30.664,-172.836 88.434,-239.039 -3.321,-7.675 -9.235,-24.511 -9.235,-46.797 0,-18.433 4.281,-40.554 17.258,-64.082 C 142.691,256.484 77.6484,386.406 77.6484,520.941"
         style="fill:#00685c;fill-opacity:1;fill-rule:evenodd;stroke:none"
         id="path62" /><path
         d="m 681.559,851.488 c -50.266,24.485 -104.297,36.871 -160.614,36.871 -202.601,0 -367.445,-164.82 -367.445,-367.418 0,-92.074 31.656,-176.031 91.535,-242.816 l 6.289,-7.012 27.934,42.227 -1.488,1.726 c -2.5,0.293 -4.571,0.657 -6.067,0.989 0.387,1.152 0.93,2.656 1.602,4.343 -2.196,2.618 -4.399,5.235 -6.489,7.911 -2.253,-3.594 -4.371,-6.25 -5.836,-7.938 -5.457,5.84 -19.503,22.859 -19.503,43.672 0,0.672 0.027,1.328 0.054,1.992 -26.136,46.016 -39.386,97.875 -39.386,154.906 0,175.786 143.011,318.801 318.8,318.801 43.153,0 84.762,-8.398 123.914,-24.992 4.188,4.336 8.34,7.754 12.176,10.43 -42.859,19.218 -88.543,29.117 -136.09,29.117 -183.816,0 -333.382,-149.539 -333.382,-333.356 0,-79.707 24.878,-149.781 73.605,-208.539 -2.84,-4.308 -6.797,-10.304 -11.344,-17.148 -53.355,62.851 -81.738,140.547 -81.738,225.687 0,194.571 158.285,352.864 352.859,352.864 51.688,0 101.325,-10.996 147.743,-32.457 -1.934,-4.211 -3.829,-8.332 -5.743,-12.457 4.266,2.402 7.871,3.847 10.321,4.672 0.031,-0.161 0.031,-0.243 0.031,-0.43 0,-5.422 -1.055,-15.82 -7.356,-28.149 l 1.653,-0.804 20.39,44.203 -6.425,3.105"
         style="fill:#00685c;fill-opacity:1;fill-rule:evenodd;stroke:none"
         id="path64" /><path
         d="m 678.297,923.512 -35.129,-44.426 c 3.215,-1.102 6.426,-2.25 9.621,-3.441 l 34.863,44.101 c -3.105,1.293 -6.222,2.543 -9.355,3.766"
         style="fill:#00685c;fill-opacity:1;fill-rule:nonzero;stroke:none"
         id="path66" /><path
         d="m 609.535,943.973 -20.476,-50.719 c 3.23,-0.594 6.453,-1.223 9.668,-1.899 l 20.398,50.52 c -3.191,0.746 -6.387,1.426 -9.59,2.098"
         style="fill:#00685c;fill-opacity:1;fill-rule:nonzero;stroke:none"
         id="path68" /><path
         d="m 527.77,953.113 -5.04,-53.758 c 3.243,-0.015 6.473,-0.062 9.708,-0.16 l 5.019,53.66 c -3.223,0.122 -6.457,0.211 -9.687,0.258"
         style="fill:#00685c;fill-opacity:1;fill-rule:nonzero;stroke:none"
         id="path70" /><path
         d="m 448.082,947.039 10.215,-52.875 c 3.18,0.531 6.367,1.027 9.57,1.477 l -10.23,52.922 c -3.199,-0.469 -6.383,-0.981 -9.555,-1.524"
         style="fill:#00685c;fill-opacity:1;fill-rule:nonzero;stroke:none"
         id="path72" /><path
         d="m 370.758,926.293 24.176,-48.512 c 3.062,1.086 6.152,2.137 9.25,3.141 l -24.246,48.656 c -3.079,-1.062 -6.137,-2.156 -9.18,-3.285"
         style="fill:#00685c;fill-opacity:1;fill-rule:nonzero;stroke:none"
         id="path74" /><path
         d="m 297.41,890.816 36.09,-41.211 c 2.863,1.641 5.746,3.231 8.652,4.797 l -36.277,41.422 c -2.844,-1.64 -5.66,-3.308 -8.465,-5.008"
         style="fill:#00685c;fill-opacity:1;fill-rule:nonzero;stroke:none"
         id="path76" /><path
         d="m 230.77,841.09 45.554,-31.649 c 2.559,2.168 5.145,4.309 7.754,6.414 l -45.851,31.844 c -2.508,-2.172 -4.997,-4.379 -7.457,-6.609"
         style="fill:#00685c;fill-opacity:1;fill-rule:nonzero;stroke:none"
         id="path78" /><path
         d="m 174.082,778.641 52.332,-20.36 c 2.137,2.645 4.309,5.266 6.512,7.848 l -52.735,20.519 c -2.066,-2.644 -4.101,-5.308 -6.109,-8.007"
         style="fill:#00685c;fill-opacity:1;fill-rule:nonzero;stroke:none"
         id="path80" /><path
         d="m 130.297,705.945 56.32,-7.851 c 1.621,3.047 3.281,6.078 4.981,9.074 l -56.817,7.922 c -1.535,-3.031 -3.027,-6.078 -4.484,-9.145"
         style="fill:#00685c;fill-opacity:1;fill-rule:nonzero;stroke:none"
         id="path82" /><path
         d="m 101.625,626.18 57.418,5.496 c 1.035,3.359 2.102,6.707 3.223,10.027 l -58.004,-5.547 c -0.918,-3.308 -1.797,-6.636 -2.637,-9.976"
         style="fill:#00685c;fill-opacity:1;fill-rule:nonzero;stroke:none"
         id="path84" /><path
         d="m 89.1914,542.633 55.5386,19.305 c 0.391,3.585 0.833,7.152 1.321,10.707 l -56.2112,-19.54 c -0.2539,-3.48 -0.4804,-6.972 -0.6484,-10.472"
         style="fill:#00685c;fill-opacity:1;fill-rule:nonzero;stroke:none"
         id="path86" /><path
         d="m 93.4922,458.262 50.1758,32.945 c -0.277,3.691 -0.531,7.387 -0.703,11.106 L 91.9961,468.844 c 0.457,-3.535 0.9531,-7.063 1.4961,-10.582"
         style="fill:#00685c;fill-opacity:1;fill-rule:nonzero;stroke:none"
         id="path88" /><path
         d="m 114.883,375.691 40.738,44.864 c -1.012,3.742 -1.922,7.511 -2.812,11.289 l -41.586,-45.789 c 1.175,-3.477 2.394,-6.914 3.66,-10.364"
         style="fill:#00685c;fill-opacity:1;fill-rule:nonzero;stroke:none"
         id="path90" /><path
         d="m 153.203,296.797 28.813,54.812 c -1.801,3.567 -3.598,7.129 -5.278,10.754 l -29.343,-55.832 c 1.89,-3.261 3.828,-6.511 5.808,-9.734"
         style="fill:#00685c;fill-opacity:1;fill-rule:nonzero;stroke:none"
         id="path92" /><path
         d="m 202.289,231.055 15.402,63.504 c -2.55,3.363 -5.05,6.75 -7.48,10.175 l -15.707,-64.793 c 2.559,-3 5.152,-5.957 7.785,-8.886"
         style="fill:#00685c;fill-opacity:1;fill-rule:nonzero;stroke:none"
         id="path94" /><path
         d="m 671.09,800.992 c 1.336,-0.887 2.656,-1.758 3.945,-2.633 1.18,0.524 2.352,1.075 3.555,1.52 1.426,0.519 2.812,0.969 4.187,1.414 -2.988,1.965 -5.769,4.16 -8.437,6.488 -0.918,-2.195 -2.012,-4.461 -3.25,-6.789"
         style="fill:#00685c;fill-opacity:1;fill-rule:nonzero;stroke:none"
         id="path96" /></g></g></svg>
